<?xml version="1.0" standalone="no"?>
<!DOCTYPE svg PUBLIC "-//W3C//DTD SVG 20010904//EN"
 "http://www.w3.org/TR/2001/REC-SVG-20010904/DTD/svg10.dtd">
<svg version="1.0" xmlns="http://www.w3.org/2000/svg"
 width="787.000000pt" height="607.000000pt" viewBox="0 0 787.000000 607.000000"
 preserveAspectRatio="xMidYMid meet">
<metadata>
Created by potrace 1.16, written by Peter Selinger 2001-2019
</metadata>
<g transform="translate(0.000000,607.000000) scale(0.100000,-0.100000)"
fill="#000000" stroke="none">
<path d="M4044 5552 c-22 -15 -53 -37 -69 -50 l-29 -23 23 -46 c13 -26 83
-136 157 -244 74 -109 137 -205 140 -213 4 -12 -40 -45 -173 -132 -259 -170
-694 -460 -722 -482 l-24 -19 33 -6 c18 -4 37 -4 44 0 19 11 624 415 754 504
l124 84 24 -30 c22 -27 888 -1269 1265 -1814 168 -242 249 -359 495 -711 87
-124 281 -403 432 -620 151 -217 276 -396 276 -397 1 -1 39 23 84 54 l81 56
-43 61 c-23 34 -211 304 -417 601 -207 297 -530 763 -719 1035 -189 272 -390
563 -446 645 -94 138 -188 272 -540 770 -141 199 -314 453 -314 460 0 2 121
86 270 185 291 196 278 182 230 238 l-20 24 -37 -23 c-36 -22 -183 -118 -192
-126 -3 -2 1 -9 7 -15 7 -7 12 -18 12 -25 0 -12 -298 -219 -305 -211 -20 24
-145 200 -235 331 -63 91 -117 167 -120 167 -3 0 -23 -12 -46 -28z"/>
<path d="M2930 4070 c-399 -267 -1555 -1035 -1857 -1233 -122 -80 -224 -151
-228 -157 -8 -12 24 -67 43 -75 18 -7 242 140 242 158 0 7 -5 18 -12 25 -6 6
-10 14 -7 16 2 2 193 129 424 281 231 153 553 366 715 475 162 108 468 312
680 453 211 141 388 257 392 257 4 0 8 5 8 10 0 6 -17 9 -37 9 -32 -1 -92 -38
-363 -219z"/>
<path d="M3870 4125 c-14 -15 -18 -25 -11 -30 6 -3 11 -26 11 -51 0 -32 4 -44
15 -44 10 0 15 11 15 35 0 19 5 35 10 35 6 0 10 -4 10 -10 0 -5 5 -10 11 -10
19 0 209 -129 308 -210 104 -84 268 -247 353 -350 145 -177 298 -444 376 -655
60 -164 67 -188 53 -193 -18 -6 -13 -29 7 -34 15 -4 24 -28 41 -109 19 -92 27
-139 47 -304 2 -22 5 -66 5 -98 l1 -59 30 29 30 28 -6 111 c-5 95 -26 248 -52
372 -5 26 -3 32 10 32 9 0 16 7 16 15 0 8 -4 15 -10 15 -5 0 -10 -6 -10 -12 0
-24 -26 28 -44 87 -89 295 -242 583 -430 810 -179 215 -382 391 -608 525 -73
44 -138 84 -144 89 -8 7 -19 2 -34 -14z"/>
<path d="M2080 2291 c0 -5 18 -11 40 -15 31 -5 45 -14 60 -39 41 -66 12 -138
-61 -153 l-44 -8 52 -4 c64 -4 108 23 124 78 13 41 1 74 -45 123 -21 22 -33
27 -76 27 -27 0 -50 -4 -50 -9z"/>
<path d="M2610 2251 c-28 -6 -31 -9 -17 -15 24 -11 26 -156 1 -156 -8 0 -12
-4 -9 -10 3 -5 24 -10 45 -10 21 0 42 5 45 10 3 6 -1 10 -9 10 -11 0 -16 9
-16 30 0 42 20 38 59 -10 31 -38 63 -51 76 -30 3 6 0 10 -7 11 -7 0 -24 14
-37 30 l-23 30 21 23 c11 12 21 29 21 38 0 41 -74 65 -150 49z"/>
</g>
</svg>
